<svg width="104" height="50" viewBox="0 0 104 50" fill="none" xmlns="http://www.w3.org/2000/svg">
<g clip-path="url(#clip0_2_35)">
<path d="M59.2567 11.1139C85.6309 12.7037 104 49.9014 104 49.9014H95.0116C95.0116 49.9014 78.8663 16.586 59.0642 11.1422L59.2567 11.1139Z" fill="url(#paint0_linear_2_35)"/>
<path style="mix-blend-mode:screen" opacity="0.3" d="M59.2567 11.1139H59.0642L59.3422 11.199C84.9537 13.9032 101.349 49.873 101.349 49.873H104C104 49.873 85.6238 12.725 59.2567 11.1139Z" fill="url(#paint1_linear_2_35)"/>
<path d="M43.5746 5.43588C71.9162 7.25993 91.6969 49.9014 91.6969 49.9014H81.4252C81.4252 49.9014 64.6669 11.71 43.3679 5.47137L43.5746 5.43588Z" fill="url(#paint2_linear_2_35)"/>
<path style="mix-blend-mode:screen" opacity="0.3" d="M43.5746 5.43588L43.3679 5.47137L43.4962 5.51395C71.3602 8.10452 89.2305 49.9014 89.2305 49.9014H91.6969C91.6969 49.9014 71.9162 7.25993 43.5746 5.43588Z" fill="url(#paint3_linear_2_35)"/>
<path d="M43.3675 5.69138C30.2161 6.40113 22.2468 12.4907 17.4352 19.9289C17.0149 17.9871 16.7527 16.0147 16.6511 14.0309C22.9382 8.23936 31.5134 4.45642 43.1608 5.66299L43.3675 5.69138Z" fill="url(#paint4_linear_2_35)"/>
<path d="M11.1912 36.5937C10.3774 40.9805 10.0594 45.4442 10.2432 49.9014H0C0 49.9014 1.51117 36.686 8.3756 24.6629C9.00837 28.7053 9.94965 32.6938 11.1912 36.5937Z" fill="url(#paint5_linear_2_35)"/>
<path style="mix-blend-mode:screen" opacity="0.3" d="M8.20453 24.9752C1.48979 36.9131 0 49.9014 0 49.9014H1.88185C2.00303 47.7367 2.97958 36.104 8.20453 24.9752Z" fill="url(#paint6_linear_2_35)"/>
<path d="M6.9856 49.9014H10.2432C10.2432 49.9014 10.2432 49.8234 10.2432 49.6743L6.9856 49.9014Z" fill="url(#paint7_linear_2_35)"/>
<path d="M52.0644 11.6675C49.3441 12.1091 46.7205 13.0142 44.309 14.3432C31.2359 21.5826 28.4631 39.674 27.9142 46.8708C26.7095 44.5925 24.7778 40.7599 22.8674 36.2743C26.4885 27.3954 32.7756 16.7492 42.9333 12.7463C45.6688 11.6724 48.5822 11.1187 51.5227 11.1139L52.0644 11.6675Z" fill="url(#paint8_linear_2_35)"/>
<path style="mix-blend-mode:multiply" opacity="0.3" d="M42.1063 13.4915C44.7497 12.1979 47.6216 11.4312 50.5603 11.2345L51.1734 11.7668C50.6174 11.9017 50.0828 12.0578 49.5553 12.221C50.3608 12.001 51.1948 11.8165 52.0644 11.6674L51.487 11.1138C48.5479 11.1119 45.6345 11.6583 42.8976 12.725C32.7399 16.7279 26.4529 27.3741 22.8318 36.253C23.1811 37.0763 23.5446 37.8783 23.8796 38.652C26.9091 29.3472 32.4192 18.2255 42.1063 13.4915Z" fill="url(#paint9_linear_2_35)"/>
<path d="M16.6014 1.86587C-0.385038 11.8023 18.027 49.9014 18.027 49.9014H27.7071C27.7071 49.9014 1.75338 4.2719 24.143 0.439276C21.5402 0.0853394 18.8925 0.586189 16.6014 1.86587Z" fill="url(#paint10_linear_2_35)"/>
<path style="mix-blend-mode:multiply" opacity="0.3" d="M17.7778 3.76799C7.61308 13.8961 21.5059 43.0595 24.9844 49.9014H27.7217C27.7217 49.9014 7.97662 15.1807 17.7778 3.76799Z" fill="url(#paint11_linear_2_35)"/>
<path d="M21.7195 1.08514C22.4998 0.792891 23.3066 0.576592 24.1288 0.439268C21.8536 0.136093 19.5386 0.478034 17.4497 1.42582C18.8419 1.06367 20.2872 0.948345 21.7195 1.08514Z" fill="url(#paint12_linear_2_35)"/>
<path d="M77.0771 49.9014H64.2963C64.2963 49.9014 56.9899 29.1343 44.3374 14.3432C43.8741 13.8038 43.4036 13.2644 42.9118 12.7463C37.5158 6.82699 31.2145 2.10009 24.1433 0.439281L24.3643 0.396698C34.4649 -1.18603 43.6888 3.78928 51.5012 11.1139L52.0786 11.6675C67.3614 26.3805 77.0771 49.9014 77.0771 49.9014Z" fill="url(#paint13_linear_2_35)"/>
<path style="mix-blend-mode:screen" opacity="0.3" d="M52.0641 11.6675L51.4867 11.1139C44.4654 4.52742 36.2965 -0.156902 27.3721 0.112801C35.3129 0.382504 42.5978 4.90358 48.9134 11.1139L49.4623 11.6675C64.0394 26.3805 73.306 49.9014 73.306 49.9014H77.0768C77.0768 49.9014 67.3611 26.3805 52.0641 11.6675Z" fill="url(#paint14_linear_2_35)"/>
</g>
<defs>
<linearGradient id="paint0_linear_2_35" x1="97.6918" y1="18.9069" x2="25.008" y2="71.6124" gradientUnits="userSpaceOnUse">
<stop stop-color="#8E54E9"/>
<stop offset="0.59" stop-color="#6567E7"/>
<stop offset="1" stop-color="#4776E6"/>
</linearGradient>
<linearGradient id="paint1_linear_2_35" x1="97.6918" y1="18.9069" x2="25.008" y2="71.6124" gradientUnits="userSpaceOnUse">
<stop stop-color="#8E54E9"/>
<stop offset="0.59" stop-color="#6567E7"/>
<stop offset="1" stop-color="#4776E6"/>
</linearGradient>
<linearGradient id="paint2_linear_2_35" x1="44.4158" y1="-9.33391" x2="85.0798" y2="55.1065" gradientUnits="userSpaceOnUse">
<stop stop-color="#4776E6"/>
<stop offset="0.48" stop-color="#479FE6"/>
<stop offset="1" stop-color="#47CFE6"/>
</linearGradient>
<linearGradient id="paint3_linear_2_35" x1="44.4158" y1="-9.33391" x2="85.0798" y2="55.1065" gradientUnits="userSpaceOnUse">
<stop stop-color="#4776E6"/>
<stop offset="0.48" stop-color="#479FE6"/>
<stop offset="1" stop-color="#47CFE6"/>
</linearGradient>
<linearGradient id="paint4_linear_2_35" x1="-9.83006" y1="44.3796" x2="42.864" y2="-1.68119" gradientUnits="userSpaceOnUse">
<stop stop-color="#4776E6"/>
<stop offset="0.48" stop-color="#479FE6"/>
<stop offset="1" stop-color="#47CFE6"/>
</linearGradient>
<linearGradient id="paint5_linear_2_35" x1="-5.10377" y1="49.7737" x2="47.5831" y2="3.72001" gradientUnits="userSpaceOnUse">
<stop stop-color="#4776E6"/>
<stop offset="0.48" stop-color="#479FE6"/>
<stop offset="1" stop-color="#47CFE6"/>
</linearGradient>
<linearGradient id="paint6_linear_2_35" x1="-6.82879" y1="47.7225" x2="45.0911" y2="2.33218" gradientUnits="userSpaceOnUse">
<stop stop-color="#4776E6"/>
<stop offset="0.48" stop-color="#479FE6"/>
<stop offset="1" stop-color="#47CFE6"/>
</linearGradient>
<linearGradient id="paint7_linear_2_35" x1="7.36339" y1="50.9873" x2="13.3216" y2="45.7736" gradientUnits="userSpaceOnUse">
<stop stop-color="#4776E6"/>
<stop offset="0.48" stop-color="#479FE6"/>
<stop offset="1" stop-color="#47CFE6"/>
</linearGradient>
<linearGradient id="paint8_linear_2_35" x1="81.3185" y1="-3.67013" x2="8.63471" y2="49.0355" gradientUnits="userSpaceOnUse">
<stop stop-color="#8E54E9"/>
<stop offset="0.59" stop-color="#6567E7"/>
<stop offset="1" stop-color="#4776E6"/>
</linearGradient>
<linearGradient id="paint9_linear_2_35" x1="77.6332" y1="-6.56591" x2="7.79938" y2="44.0768" gradientUnits="userSpaceOnUse">
<stop stop-color="#8E54E9"/>
<stop offset="0.59" stop-color="#6567E7"/>
<stop offset="1" stop-color="#4776E6"/>
</linearGradient>
<linearGradient id="paint10_linear_2_35" x1="9.21661" y1="36.324" x2="66.2291" y2="-10.4978" gradientUnits="userSpaceOnUse">
<stop stop-color="#8E54E9"/>
<stop offset="0.59" stop-color="#6567E7"/>
<stop offset="1" stop-color="#4776E6"/>
</linearGradient>
<linearGradient id="paint11_linear_2_35" x1="13.6578" y1="34.2444" x2="51.1002" y2="3.48881" gradientUnits="userSpaceOnUse">
<stop stop-color="#8E54E9"/>
<stop offset="0.59" stop-color="#6567E7"/>
<stop offset="1" stop-color="#4776E6"/>
</linearGradient>
<linearGradient id="paint12_linear_2_35" x1="18.7684" y1="2.57561" x2="27.9106" y2="-4.93671" gradientUnits="userSpaceOnUse">
<stop stop-color="#8E54E9"/>
<stop offset="0.59" stop-color="#6567E7"/>
<stop offset="1" stop-color="#4776E6"/>
</linearGradient>
<linearGradient id="paint13_linear_2_35" x1="74.8816" y1="49.7311" x2="29.0745" y2="-3.26983" gradientUnits="userSpaceOnUse">
<stop stop-color="#8E54E9"/>
<stop offset="0.59" stop-color="#6567E7"/>
<stop offset="1" stop-color="#4776E6"/>
</linearGradient>
<linearGradient id="paint14_linear_2_35" x1="76.756" y1="48.1696" x2="32.1406" y2="-3.45635" gradientUnits="userSpaceOnUse">
<stop stop-color="#8E54E9"/>
<stop offset="0.59" stop-color="#6567E7"/>
<stop offset="1" stop-color="#4776E6"/>
</linearGradient>
<clipPath id="clip0_2_35">
<rect width="104" height="49.8028" fill="white" transform="translate(0 0.098587)"/>
</clipPath>
</defs>
</svg>
